/* XPM */
static char *result[] = {
/* columns rows colors chars-per-pixel */
"32 32 4 1 ",
"  c #558B2F",
". c #64DD17",
"X c #76FF03",
"o c None",
/* pixels */
"oooooo  oooooo  ooXooo  oooooooo",
"o..oo .. oooo .. oo.o X. ooo.ooo",
"o.X.o XX oooo .. ooo. .. oo.X.oo",
"oo.X. X. ooo..X..oooo..X o.X.ooo",
"ooo.X ...oo.X.XX oooo XX .X.oooo",
"oooo...X o.X...X o.oo X..X.ooooo",
"ooooo XX .X.o .. .X.o .XX.oooooo",
"ooooo X. X.oo X..X.oo..X ooooooo",
"ooooo ....ooo.XX .ooo XX ooooooo",
"ooooo..X oooo..X oo.o XX.ooooooo",
"ooooo XX oooo .. o.X. X..ooooooo",
"ooooo.XX.oooo X..oo.X .. ooooooo",
"ooooo X. oooo XX ooo.X.. ooooooo",
"ooooo .. oooo.XX oo.o .X ooooooo",
"ooooo .. oooo..X o.X. XX oo.oooo",
"ooooo..  oooo .. .X.o .. o.X.ooo",
"ooooo.XX oooo XXXX.oo .X .X.oooo",
"ooooo .. .ooo .X..ooo XX.X.ooooo",
"ooooo... X.oo .. oooo .XX.oooooo",
"ooooo..X .X.o X. oo.o .. ooooooo",
"ooooo XX o.X. XX o.X. .X ooooooo",
"oo.oo XX oo.X..X oo.X..X ooooooo",
"o.X.o X. ooo.... ooo.XXX.ooooooo",
"oo.X. ...oooo .. oooo X..ooooooo",
"ooo.X .. oooo X..ooo. .. ooooooo",
"oooo...X oooo XX.oo.X..X o.ooooo",
"ooooo.XX.oooo.XX o.X. X. .X.oooo",
"ooooo X..oooo... .X.o XX.X.ooooo",
"ooooo .. oooo ...X.oo .XX.oooooo",
"ooooo..X oooo X...ooo .. ooooooo",
"ooooo XX oooo XX oooo .. ooooooo",
"ooooo....oooo....oooo....ooooooo"
};
