/* XPM */
static char *_51aa8eac2b74f5e902c72e0e0bb2f16FEbBtsggihPazjiW[] = {
/* columns rows colors chars-per-pixel */
"32 32 222 2 ",
"   c None",
".  c black",
"X  c #010101",
"o  c #020101",
"O  c #020202",
"+  c gray1",
"@  c #040404",
"#  c gray2",
"$  c #060606",
"%  c #070606",
"&  c #070707",
"*  c gray3",
"=  c #090909",
"-  c gray4",
";  c #0B0A0A",
":  c #0B0B0B",
">  c #0C0B0B",
",  c #0C0C0C",
"<  c gray5",
"1  c #0E0D0D",
"2  c #0E0E0E",
"3  c #0F0E0E",
"4  c gray6",
"5  c #100F0F",
"6  c #101010",
"7  c #111111",
"8  c #121111",
"9  c gray7",
"0  c #131313",
"q  c gray8",
"w  c #151414",
"e  c #151515",
"r  c #161515",
"t  c #161616",
"y  c #181717",
"u  c #181818",
"i  c #191919",
"p  c gray10",
"a  c #1B1A1A",
"s  c #1B1B1B",
"d  c gray11",
"f  c #1D1C1C",
"g  c #1D1D1D",
"h  c #1E1D1D",
"j  c #1E1E1E",
"k  c gray12",
"l  c #202020",
"z  c #212020",
"x  c gray13",
"c  c #222222",
"v  c #232323",
"b  c #242323",
"n  c gray14",
"m  c #252424",
"M  c #252525",
"N  c #262525",
"B  c gray15",
"V  c #272626",
"C  c #272727",
"Z  c #282727",
"A  c #282828",
"S  c gray16",
"D  c #2A2929",
"F  c #2A2A2A",
"G  c #2B2A2A",
"H  c gray17",
"J  c #2C2B2B",
"K  c #2C2C2C",
"L  c #2D2C2C",
"P  c #2D2D2D",
"I  c #2E2D2D",
"U  c gray18",
"Y  c #2F2E2E",
"T  c #2F2F2F",
"R  c #302F2F",
"E  c gray19",
"W  c #313030",
"Q  c #313131",
"!  c #323131",
"~  c #323232",
"^  c #333232",
"/  c gray20",
"(  c #343333",
")  c #343434",
"_  c #353434",
"`  c #353535",
"'  c #363535",
"]  c gray21",
"[  c #373737",
"{  c #383737",
"}  c gray22",
"|  c #393838",
" . c #393939",
".. c #3A3939",
"X. c #3A3A3A",
"o. c #3B3A3A",
"O. c gray23",
"+. c #3C3B3B",
"@. c #3D3C3C",
"#. c gray24",
"$. c #3E3D3D",
"%. c #3F3E3E",
"&. c #3F3F3F",
"*. c #403F3F",
"=. c gray25",
"-. c #414040",
";. c #414141",
":. c #424141",
">. c gray26",
",. c #434242",
"<. c #434343",
"1. c #444343",
"2. c #444444",
"3. c #454444",
"4. c #464545",
"5. c #464646",
"6. c #474646",
"7. c gray28",
"8. c #484747",
"9. c #494848",
"0. c #4A4949",
"q. c gray29",
"w. c #4B4A4A",
"e. c #4B4B4B",
"r. c #4C4B4B",
"t. c #4D4C4C",
"y. c gray30",
"u. c #4E4D4D",
"i. c gray31",
"p. c #504F4F",
"a. c #505050",
"s. c #515050",
"d. c #515151",
"f. c #525151",
"g. c gray32",
"h. c #535252",
"j. c #545353",
"k. c gray33",
"l. c #555454",
"z. c #555555",
"x. c #565555",
"c. c #575656",
"v. c #585757",
"b. c #585858",
"n. c #595858",
"m. c gray35",
"M. c #5A5959",
"N. c #5A5A5A",
"B. c #5B5B5B",
"V. c #5C5B5B",
"C. c gray36",
"Z. c #5D5C5C",
"A. c #5D5D5D",
"S. c #5E5D5D",
"D. c gray37",
"F. c #5F5E5E",
"G. c #5F5F5F",
"H. c #605F5F",
"J. c #606060",
"K. c #616060",
"L. c gray38",
"P. c #626161",
"I. c #626262",
"U. c #636262",
"Y. c gray39",
"T. c #646363",
"R. c #646464",
"E. c #656464",
"W. c #666565",
"Q. c gray40",
"!. c #676666",
"~. c #676767",
"^. c #686767",
"/. c #686868",
"(. c #696868",
"). c DimGray",
"_. c #6A6969",
"`. c #6A6A6A",
"'. c #6B6A6A",
"]. c gray42",
"[. c #6C6B6B",
"{. c #6C6C6C",
"}. c #6D6C6C",
"|. c #6D6D6D",
" X c #6E6D6D",
".X c gray43",
"XX c #6F6E6E",
"oX c #6F6F6F",
"OX c #706F6F",
"+X c gray44",
"@X c #717171",
"#X c #727171",
"$X c #727272",
"%X c gray45",
"&X c #747373",
"*X c #747474",
"=X c #757474",
"-X c gray46",
";X c #767676",
":X c #777676",
">X c #777777",
",X c #787777",
"<X c gray47",
"1X c #797878",
"2X c #797979",
"3X c #7A7979",
"4X c gray48",
"5X c #7B7B7B",
"6X c #7C7C7C",
"7X c #7D7C7C",
"8X c gray49",
"9X c #7E7D7D",
"0X c #7E7E7E",
"qX c gray50",
"wX c #808080",
"eX c #818181",
"rX c #838383",
"tX c #848484",
"yX c #858484",
"uX c gray52",
"iX c #868686",
"pX c gray53",
/* pixels */
"      @XiX5XeXiXrX8X5X^.H.w.a.V.,XoX4XrX,X,X8X5XqX              ",
"    `.8X;.0.1.t.>Xw.*.{ +.OXV.1.;.1.^.`.1.;.;.8.~.oX            ",
"  ^.@X4.4.1.;.1.j.p.J K V.>XE { ;.4.T.V.E %.;.N.4X,XiXV.        ",
"  4X;.E 1.1.1.1.j.@X[.eXC.`.N.R %.v.4X~.K Z J ~.a.1.4XeX        ",
"4X@X8X' %.;.1.( a.t.0.8.;.4.C.R.,Xp.0.c.5X[.0.@XZ J v.8XiX~.    ",
">Xt.;.H.K.( E ..[.R 1.8.;.E F R.0.>X;.;.4.t.eX>XoX~.K.8.H.5X    ",
"@X1.1.1.~.' ' c.`.5XoXK.t.;.K...E >Xc...( 1.1.C.4X4.1.;.;.c.8X  ",
">X;.1.;.j.C.4XK.c.;.%.8X{ E K M E F M ~.K K ....eX@X1.;.1.1.`.iX",
"N.1.1.;.1.4.8XC.c.%.J `.Z b M Z R M c c ' ;.4X~.H.N.@XM F t.@XOX",
"K.;.1.1.;.>Xw.E R J T.a.F c F F F E ' F K c K 4.1.1.C.`.' a.1.;.",
"w.1.;.;.;.<.>X' 4.K.t.' J M M J ' K K F M Z K %.E ' K oXOXp.+.;.",
"1.( 1.( M C 8Xe.k.' K J M M K E ..4.M M M M K c.R V.iX4XT.qXE ( ",
"R R ..C C N.c...C K M M c c M M c c M c c E M ' E t.j.1.;.4.~.M ",
"M b F oXC.a...c K K n c M K F c j c M M c F E b K ;.%.+.1.1.a.`.",
"8X8X8X8XK.%.n K M n c c F M q 9 y M Z b M b F Z F F C.*.%.1.1.;.",
"1.4.1.0.C...n n c c n M s 4 @ * * * 9 c F Z c J K M ,XN.( { ..1.",
"1.1.1.1.`.' M c c K s q 4 * @ * 4 4 q q c b R M Z M ,XK.@XF c ( ",
";.;.1.1.N.' c M c c 5 9 4 * * 4 4 @ * 0 s M F ' M M oX;.`.`.@X>X",
"1.1.( E ~.{ F F c * 4 * # @ # # o o + % * q J K M F oX%...,XK.4.",
"Z c K C.w.M K c q @ @ * , * o o o o o o 4 > c K b F C.M ~.`.;.1.",
"K.iX4XeX4.M c c 4 # 4 # * 4 o o o o o o 6 * q F K F ..eX@X%.;.1.",
"1.;.;.eXv.M M M o * 4 o 4 # o o o o o o * , @ j F K F +.8XE ' R ",
"J ' N.w.[.;.K j @ @ @ @ o @ o o o o o o @ * @ s Z M K b j.>Xc.`.",
"V.[.a.8.`.a.E y @ * @ @ o o o o o o o o o 4 , 6 c M F K ~.;.0.;.",
";.1.;.;.j.8.*.9 # o o o # o o o o o o @ @ * @ @ j M c @Xp.;.1.1.",
";.1.1.( ;.w.F > * o o o # * @ o o o @ 4 4 4 * 9 j c M K.0.1.1.;.",
"1.1.{ K K.1.c 4 o # * o # @ @ * @ 4 * @ * * * 9 y M M C.R +.1.;.",
"+.{ E H.j.{ q 9 # @ 6 # # # # # @ @ @ @ * * * * 4 M M C.`.Z *...",
"' +.K.4XK.+.9 4 o # , # # o o o o o # # @ 4 * @ q c M oXrXT.F Z ",
"oX@Xa.`.4X;.q * o * # o o o # # @ * o # 4 4 @ @ 0 J oXK.~.~.N.K.",
";.1.;.F >Xv.a 5 # @ o # , * * * * * # o , * o o 9 E =Xt.1.;.1.;.",
"F b M c E M q % # , * * 0 * * * 9 * * # @ @ o o > c c c b M M F "
};
