/* XPM */
static char *result[] = {
/* columns rows colors chars-per-pixel */
"32 32 5 1 ",
"  c #689F38",
". c #7CB342",
"X c #8BC34A",
"o c #9CCC65",
"O c #AED581",
/* pixels */
"................................",
"..... .. ...X.. ....... . ... ..",
".. ...... .... X ... ....... O .",
".... ..... .... ... ...... .. ..",
"............. ........... ......",
".. .... .. .....X. ..... ...  ..",
". o ..... o .......... ....... .",
".. ....... ... ...... o ... ....",
".... .. ..... .... ... ... . ...",
"............ ... .. ....... ....",
"....... .. .... o .. .. ...... .",
".. ... ...... .. ......... .....",
"..... ...... O .......... ......",
". ........ .. ...... ... .... ..",
"......... X ................ O .",
".. ....... ...... .... ... .. ..",
". o . .. ....... .... O ........",
".. ...........X ...... .... .. .",
"..... ..... ................ ...",
".... o ... X ..... ..... .......",
"..... .. .. ..... ..... X .... .",
".. ...... ...... ... ... ... ...",
"...... .............. ..... ....",
".. .... ....... ...... ....... .",
". ... ...... ..... ....... .....",
".... X .... O ..... ..... o .. .",
"..... ...... ....... ..... .. ..",
"........ ...... ................",
". .....   .... X ...... .... .. ",
".. ..... ...... ...... O .... ..",
"... ........ ...... ... ... .. .",
"................................"
};
