/* XPM */
static char *result[] = {
/* columns rows colors chars-per-pixel */
"32 32 5 1 ",
"  c #000000",
". c #656565",
"X c #EEEEEE",
"o c #F7F7F7",
"O c None",
/* pixels */
"OOOO    OOOOOOOOOOOOOO   OOOOOOO",
"OOO  ..  OOO      OOO  .  OOOOOO",
"OOO .... O   oooo   O ...  OOOOO",
"OOO  ...   oooooooo   .... OOOOO",
"OOOO  .  ooooooooooooo ..  OOOOO",
"OOOOO   oo    oooo    o   OOOOOO",
"OOOOO ooo  ..  oo  ..  o OOOOOOO",
"OOOOO ooo .... oo .... o OOOOOOO",
"OOOOO ooo .o . oo .o . oo OOOOOO",
"OOOO  ooo .  . oo .  . oo OOOOOO",
"OOOO oooo .... oo .... oo  OOOOO",
"OOOO oooo  ..  oo  ..  ooo OOOOO",
"OOOO ooooo    oooo    oooo OOOOO",
"OOOO XXooooooooooooooooooX OOOOO",
"OOOO   XXooooooo   oooooX OOOOOO",
"OOOOOO   Xoooo oo oo oXXX OOOOOO",
"OOOOOOOO XXoooo  o  XXX  OOOOOOO",
"OOOOOOOO   XXXooooXXX  OOOOOOOOO",
"OOOOOOO ..    XXXXXX .. OOOOOOOO",
"OOOOOO ....  o       ... OOOOOOO",
"OOOO   .....  ooooX ....  OOOOOO",
"OOO X  ...... oooX  .... X OOOOO",
"OO Xoo ......  oX  ..... oX OOOO",
"O Xooo .......  X ...... ooX OOO",
"O ..... .......   ...... ... OOO",
"O ..... ........  ...... ... OOO",
"O ..... ........  ...... ... OOO",
"O .....  .......  ...... ... OOO",
"OO ..... ......    .... ... OOOO",
"OOO      XooooX    XooX    OOOOO",
"OOOOOOOOO      OOOO    OOOOOOOOO",
"OOOOOOOOOOOOOOOOOOOOOOOOOOOOOOOO"
};
