/* XPM */
static char *a7031acc17e248b9e889d68a10f0e47fs9fBqUA6XgX7zGh6[] = {
/* columns rows colors chars-per-pixel */
"32 32 21 1 ",
"  c black",
". c #030402",
"X c #17260D",
"o c #18270D",
"O c #173101",
"+ c #1D2F10",
"@ c #224B08",
"# c #285701",
"$ c #294417",
"% c #2F4E1A",
"& c #316B0B",
"* c #397C01",
"= c #387B0D",
"- c #3A5F20",
"; c #3B6121",
": c #428E02",
"> c #469A10",
", c #52B202",
"< c #558B2F",
"1 c #64DD17",
"2 c #76FF03",
/* pixels */
"+o ;;  <<  %%oo<<. 2%oX<<O $$+  ",
"@@11>-<11<%==%<11<%:1%<21<$*&1@+",
">#121-<22<%==%<11<%==1<11<>&121+",
",>;121<21<=:=11211==:%112<&121#&",
">,;>12<111=:12122<%::%<22<121$&*",
"@>>>,1112<=121112<%1==<21121&&*&",
"##;,,;<22<121%<11<121:<1221&**&#",
"#@;,>;<21<21==<21121:%112<&&*$#+",
"@@;>>><1111::%122<1::%<22<$**$#+",
"@#>>,;112<==:%112<%:1=<221$**&#@",
"##;,,;<22<%==%<11<%121<211$*&&@@",
"##>,,>1221%:==<211%=12<11<$&&$@+",
"#@;,>;<21<%::%<22<:==1211<*&&$@+",
"@@;>>;<11<=::%122<%=1%<12<$&*$#+",
"@@;>>;<11<==:%112<%121<22<$*1$#+",
"@+>>;;11<<%==%<11<121%<11<$121@&",
"##>,,;122<%:::<22221:%<12<121$&*",
"@@;>>;<11<1=:=<1211::=<22121*&*&",
"@@>>>;111<21=%<11<%=::<1221&**&#",
"@#>>,;112<121%<21<%=1%<11<$&&$@+",
"##;,,;<22<%121<22<%121<12<$&*$#+",
"##;1,;<22<==12112<==12112<&&*$#+",
">@121;<21<===1111<:::12221***&#@",
",>;121<111%==%<11<%:==<211$*&&@@",
">,;>12<11<%:==<211%==1<11<$&&$@+",
"@>>>,1112<%::=<221==12112<&1*$#&",
"##>,,>1221=::%122<%121<21<121$&*",
"#@;,>><211===%111<121=<22121*&*&",
"@@;>>;<11<%===<11121::<1221&**&#",
"@#>>,;112<%:==<2111==%<11<$&&$@+",
"##;,,;<22<%::%<22<%==%<11<$&&$@+",
"@@>>>>1111====1111====1111&&&&@@"
};
